<mxfile host="app.diagrams.net" modified="2024-02-13T01:16:55.064Z" agent="Mozilla/5.0 (Windows NT 10.0; Win64; x64) AppleWebKit/537.36 (KHTML, like Gecko) Chrome/121.0.0.0 Safari/537.36" etag="S8rv7P9c7GzEGHqBQbxv" version="23.1.3" type="github">
  <diagram name="Page-1" id="7nzn1d_gUW8tBaM6axko">
    <mxGraphModel dx="2048" dy="672" grid="1" gridSize="10" guides="1" tooltips="1" connect="1" arrows="1" fold="1" page="1" pageScale="1" pageWidth="827" pageHeight="1169" math="0" shadow="0">
      <root>
        <mxCell id="0" />
        <mxCell id="1" parent="0" />
        <mxCell id="2w0wu_NG72aW-iGhCFo9-16" value="Private App Subnet AZ1 - 10.0.2.0/24" style="points=[[0,0],[0.25,0],[0.5,0],[0.75,0],[1,0],[1,0.25],[1,0.5],[1,0.75],[1,1],[0.75,1],[0.5,1],[0.25,1],[0,1],[0,0.75],[0,0.5],[0,0.25]];outlineConnect=0;gradientColor=none;html=1;whiteSpace=wrap;fontSize=12;fontStyle=0;container=1;pointerEvents=0;collapsible=0;recursiveResize=0;shape=mxgraph.aws4.group;grIcon=mxgraph.aws4.group_security_group;grStroke=0;strokeColor=#00A4A6;fillColor=#E6F6F7;verticalAlign=top;align=left;spacingLeft=30;fontColor=#147EBA;dashed=0;" vertex="1" parent="1">
          <mxGeometry x="414" y="110" width="130" height="130" as="geometry" />
        </mxCell>
        <mxCell id="2w0wu_NG72aW-iGhCFo9-15" value="&lt;font style=&quot;font-size: 10px;&quot;&gt;Public Subnet AZ1 - 10.0.0.0/24&lt;/font&gt;" style="points=[[0,0],[0.25,0],[0.5,0],[0.75,0],[1,0],[1,0.25],[1,0.5],[1,0.75],[1,1],[0.75,1],[0.5,1],[0.25,1],[0,1],[0,0.75],[0,0.5],[0,0.25]];outlineConnect=0;gradientColor=none;html=1;whiteSpace=wrap;fontSize=12;fontStyle=0;container=1;pointerEvents=0;collapsible=0;recursiveResize=0;shape=mxgraph.aws4.group;grIcon=mxgraph.aws4.group_security_group;grStroke=0;strokeColor=#7AA116;fillColor=#F2F6E8;verticalAlign=top;align=left;spacingLeft=30;fontColor=#248814;dashed=0;" vertex="1" parent="1">
          <mxGeometry x="200" y="110" width="180" height="130" as="geometry" />
        </mxCell>
        <mxCell id="2w0wu_NG72aW-iGhCFo9-22" value="NAT Gateway" style="sketch=0;outlineConnect=0;fontColor=#232F3E;gradientColor=none;fillColor=#8C4FFF;strokeColor=none;dashed=0;verticalLabelPosition=bottom;verticalAlign=top;align=center;html=1;fontSize=12;fontStyle=0;aspect=fixed;pointerEvents=1;shape=mxgraph.aws4.nat_gateway;" vertex="1" parent="2w0wu_NG72aW-iGhCFo9-15">
          <mxGeometry x="70" y="30" width="40" height="40" as="geometry" />
        </mxCell>
        <mxCell id="2w0wu_NG72aW-iGhCFo9-3" value="Region: US East (N. Virginia) US-East-1" style="points=[[0,0],[0.25,0],[0.5,0],[0.75,0],[1,0],[1,0.25],[1,0.5],[1,0.75],[1,1],[0.75,1],[0.5,1],[0.25,1],[0,1],[0,0.75],[0,0.5],[0,0.25]];outlineConnect=0;gradientColor=none;html=1;whiteSpace=wrap;fontSize=12;fontStyle=0;container=1;pointerEvents=0;collapsible=0;recursiveResize=0;shape=mxgraph.aws4.group;grIcon=mxgraph.aws4.group_region;strokeColor=#00A4A6;fillColor=none;verticalAlign=top;align=left;spacingLeft=30;fontColor=#147EBA;dashed=1;" vertex="1" parent="1">
          <mxGeometry x="60" y="20" width="740" height="660" as="geometry" />
        </mxCell>
        <mxCell id="2w0wu_NG72aW-iGhCFo9-5" value="IAM Role &lt;br&gt;with &lt;br&gt;S3 policy" style="sketch=0;outlineConnect=0;fontColor=#232F3E;gradientColor=none;fillColor=#DD344C;strokeColor=none;dashed=0;verticalLabelPosition=bottom;verticalAlign=top;align=center;html=1;fontSize=12;fontStyle=0;aspect=fixed;pointerEvents=1;shape=mxgraph.aws4.role;" vertex="1" parent="2w0wu_NG72aW-iGhCFo9-3">
          <mxGeometry x="4" y="40" width="78" height="44" as="geometry" />
        </mxCell>
        <mxCell id="2w0wu_NG72aW-iGhCFo9-6" value="AMI" style="outlineConnect=0;dashed=0;verticalLabelPosition=bottom;verticalAlign=top;align=center;html=1;shape=mxgraph.aws3.ami;fillColor=#F58534;gradientColor=none;" vertex="1" parent="2w0wu_NG72aW-iGhCFo9-3">
          <mxGeometry x="17" y="159" width="60" height="60" as="geometry" />
        </mxCell>
        <mxCell id="2w0wu_NG72aW-iGhCFo9-33" value="SNS" style="sketch=0;points=[[0,0,0],[0.25,0,0],[0.5,0,0],[0.75,0,0],[1,0,0],[0,1,0],[0.25,1,0],[0.5,1,0],[0.75,1,0],[1,1,0],[0,0.25,0],[0,0.5,0],[0,0.75,0],[1,0.25,0],[1,0.5,0],[1,0.75,0]];outlineConnect=0;fontColor=#232F3E;fillColor=#E7157B;strokeColor=#ffffff;dashed=0;verticalLabelPosition=bottom;verticalAlign=top;align=center;html=1;fontSize=12;fontStyle=0;aspect=fixed;shape=mxgraph.aws4.resourceIcon;resIcon=mxgraph.aws4.sns;" vertex="1" parent="2w0wu_NG72aW-iGhCFo9-3">
          <mxGeometry x="17" y="373" width="60" height="60" as="geometry" />
        </mxCell>
        <mxCell id="2w0wu_NG72aW-iGhCFo9-34" value="Certificate &lt;br&gt;Manager" style="sketch=0;points=[[0,0,0],[0.25,0,0],[0.5,0,0],[0.75,0,0],[1,0,0],[0,1,0],[0.25,1,0],[0.5,1,0],[0.75,1,0],[1,1,0],[0,0.25,0],[0,0.5,0],[0,0.75,0],[1,0.25,0],[1,0.5,0],[1,0.75,0]];outlineConnect=0;fontColor=#232F3E;fillColor=#DD344C;strokeColor=#ffffff;dashed=0;verticalLabelPosition=bottom;verticalAlign=top;align=center;html=1;fontSize=12;fontStyle=0;aspect=fixed;shape=mxgraph.aws4.resourceIcon;resIcon=mxgraph.aws4.certificate_manager_3;" vertex="1" parent="2w0wu_NG72aW-iGhCFo9-3">
          <mxGeometry x="17" y="470" width="56" height="56" as="geometry" />
        </mxCell>
        <mxCell id="2w0wu_NG72aW-iGhCFo9-35" value="AWS S3" style="sketch=0;outlineConnect=0;fontColor=#232F3E;gradientColor=none;fillColor=#7AA116;strokeColor=none;dashed=0;verticalLabelPosition=bottom;verticalAlign=top;align=center;html=1;fontSize=12;fontStyle=0;aspect=fixed;pointerEvents=1;shape=mxgraph.aws4.bucket_with_objects;" vertex="1" parent="2w0wu_NG72aW-iGhCFo9-3">
          <mxGeometry x="17" y="580" width="44.5" height="46.28" as="geometry" />
        </mxCell>
        <mxCell id="2w0wu_NG72aW-iGhCFo9-43" value="" style="edgeStyle=orthogonalEdgeStyle;html=1;endArrow=block;elbow=vertical;startArrow=block;startFill=1;endFill=1;strokeColor=#545B64;rounded=0;" edge="1" parent="2w0wu_NG72aW-iGhCFo9-3">
          <mxGeometry width="100" relative="1" as="geometry">
            <mxPoint x="8" y="320" as="sourcePoint" />
            <mxPoint x="58" y="320" as="targetPoint" />
          </mxGeometry>
        </mxCell>
        <mxCell id="2w0wu_NG72aW-iGhCFo9-4" value="Dev VPC - 10.0.0.0/16" style="points=[[0,0],[0.25,0],[0.5,0],[0.75,0],[1,0],[1,0.25],[1,0.5],[1,0.75],[1,1],[0.75,1],[0.5,1],[0.25,1],[0,1],[0,0.75],[0,0.5],[0,0.25]];outlineConnect=0;gradientColor=none;html=1;whiteSpace=wrap;fontSize=12;fontStyle=0;container=1;pointerEvents=0;collapsible=0;recursiveResize=0;shape=mxgraph.aws4.group;grIcon=mxgraph.aws4.group_vpc2;strokeColor=#8C4FFF;fillColor=none;verticalAlign=top;align=left;spacingLeft=30;fontColor=#AAB7B8;dashed=0;" vertex="1" parent="1">
          <mxGeometry x="150" y="50" width="600" height="590" as="geometry" />
        </mxCell>
        <mxCell id="2w0wu_NG72aW-iGhCFo9-21" value="Private App Subnet AZ2 - 10.0.3.0/24" style="points=[[0,0],[0.25,0],[0.5,0],[0.75,0],[1,0],[1,0.25],[1,0.5],[1,0.75],[1,1],[0.75,1],[0.5,1],[0.25,1],[0,1],[0,0.75],[0,0.5],[0,0.25]];outlineConnect=0;gradientColor=none;html=1;whiteSpace=wrap;fontSize=12;fontStyle=0;container=1;pointerEvents=0;collapsible=0;recursiveResize=0;shape=mxgraph.aws4.group;grIcon=mxgraph.aws4.group_security_group;grStroke=0;strokeColor=#00A4A6;fillColor=#E6F6F7;verticalAlign=top;align=left;spacingLeft=30;fontColor=#147EBA;dashed=0;" vertex="1" parent="2w0wu_NG72aW-iGhCFo9-4">
          <mxGeometry x="254" y="380" width="130" height="130" as="geometry" />
        </mxCell>
        <mxCell id="2w0wu_NG72aW-iGhCFo9-14" value="Availability Zone 2 : US - East-1b" style="fillColor=none;strokeColor=#b7761a;dashed=1;verticalAlign=top;fontStyle=0;fontColor=#147EBA;whiteSpace=wrap;html=1;rotation=0;" vertex="1" parent="2w0wu_NG72aW-iGhCFo9-4">
          <mxGeometry x="27" y="350" width="560" height="200" as="geometry" />
        </mxCell>
        <mxCell id="2w0wu_NG72aW-iGhCFo9-26" value="" style="swimlane;startSize=0;dashed=1;dashPattern=8 8;" vertex="1" parent="2w0wu_NG72aW-iGhCFo9-4">
          <mxGeometry x="290" y="130" width="80" height="370" as="geometry" />
        </mxCell>
        <mxCell id="2w0wu_NG72aW-iGhCFo9-28" value="&lt;font style=&quot;font-size: 10px;&quot;&gt;Webserver&lt;/font&gt;" style="sketch=0;outlineConnect=0;fontColor=#232F3E;gradientColor=none;fillColor=#ED7100;strokeColor=none;dashed=0;verticalLabelPosition=bottom;verticalAlign=top;align=center;html=1;fontSize=12;fontStyle=0;aspect=fixed;pointerEvents=1;shape=mxgraph.aws4.instance2;" vertex="1" parent="2w0wu_NG72aW-iGhCFo9-26">
          <mxGeometry x="15" y="300" width="48" height="48" as="geometry" />
        </mxCell>
        <mxCell id="2w0wu_NG72aW-iGhCFo9-13" value="Availability Zone 1 : US - East-1a" style="fillColor=none;strokeColor=#b7761a;dashed=1;verticalAlign=top;fontStyle=0;fontColor=#147EBA;whiteSpace=wrap;html=1;" vertex="1" parent="2w0wu_NG72aW-iGhCFo9-4">
          <mxGeometry x="25" y="40" width="560" height="200" as="geometry" />
        </mxCell>
        <mxCell id="2w0wu_NG72aW-iGhCFo9-17" value="Private Data Subnet AZ1 - 10.0.4.0/24" style="points=[[0,0],[0.25,0],[0.5,0],[0.75,0],[1,0],[1,0.25],[1,0.5],[1,0.75],[1,1],[0.75,1],[0.5,1],[0.25,1],[0,1],[0,0.75],[0,0.5],[0,0.25]];outlineConnect=0;gradientColor=none;html=1;whiteSpace=wrap;fontSize=12;fontStyle=0;container=1;pointerEvents=0;collapsible=0;recursiveResize=0;shape=mxgraph.aws4.group;grIcon=mxgraph.aws4.group_security_group;grStroke=0;strokeColor=#00A4A6;fillColor=#E6F6F7;verticalAlign=top;align=left;spacingLeft=30;fontColor=#147EBA;dashed=0;" vertex="1" parent="2w0wu_NG72aW-iGhCFo9-4">
          <mxGeometry x="420" y="60" width="130" height="130" as="geometry" />
        </mxCell>
        <mxCell id="2w0wu_NG72aW-iGhCFo9-30" value="Standby DB" style="sketch=0;outlineConnect=0;fontColor=#232F3E;gradientColor=none;fillColor=#C925D1;strokeColor=none;dashed=0;verticalLabelPosition=bottom;verticalAlign=top;align=center;html=1;fontSize=12;fontStyle=0;aspect=fixed;pointerEvents=1;shape=mxgraph.aws4.rds_instance;" vertex="1" parent="2w0wu_NG72aW-iGhCFo9-17">
          <mxGeometry x="40" y="55" width="38" height="38" as="geometry" />
        </mxCell>
        <mxCell id="2w0wu_NG72aW-iGhCFo9-18" value="" style="outlineConnect=0;gradientColor=none;html=1;whiteSpace=wrap;fontSize=12;fontStyle=0;strokeColor=#FF9900;fillColor=none;verticalAlign=top;align=center;fontColor=#FF9900;dashed=1;spacingTop=3;dashPattern=8 8;" vertex="1" parent="2w0wu_NG72aW-iGhCFo9-4">
          <mxGeometry x="280" y="120" width="100" height="390" as="geometry" />
        </mxCell>
        <mxCell id="2w0wu_NG72aW-iGhCFo9-19" value="&lt;font style=&quot;font-size: 10px;&quot;&gt;Public Subnet AZ2 - 10.0.1.0/24&lt;/font&gt;" style="points=[[0,0],[0.25,0],[0.5,0],[0.75,0],[1,0],[1,0.25],[1,0.5],[1,0.75],[1,1],[0.75,1],[0.5,1],[0.25,1],[0,1],[0,0.75],[0,0.5],[0,0.25]];outlineConnect=0;gradientColor=none;html=1;whiteSpace=wrap;fontSize=12;fontStyle=0;container=1;pointerEvents=0;collapsible=0;recursiveResize=0;shape=mxgraph.aws4.group;grIcon=mxgraph.aws4.group_security_group;grStroke=0;strokeColor=#7AA116;fillColor=#F2F6E8;verticalAlign=top;align=left;spacingLeft=30;fontColor=#248814;dashed=0;" vertex="1" parent="2w0wu_NG72aW-iGhCFo9-4">
          <mxGeometry x="40" y="380" width="180" height="130" as="geometry" />
        </mxCell>
        <mxCell id="2w0wu_NG72aW-iGhCFo9-23" value="NAT Gateway" style="sketch=0;outlineConnect=0;fontColor=#232F3E;gradientColor=none;fillColor=#8C4FFF;strokeColor=none;dashed=0;verticalLabelPosition=bottom;verticalAlign=top;align=center;html=1;fontSize=12;fontStyle=0;aspect=fixed;pointerEvents=1;shape=mxgraph.aws4.nat_gateway;" vertex="1" parent="2w0wu_NG72aW-iGhCFo9-19">
          <mxGeometry x="70" y="50" width="40" height="40" as="geometry" />
        </mxCell>
        <mxCell id="2w0wu_NG72aW-iGhCFo9-20" value="Private Data Subnet AZ2 - 10.0.5.0/24" style="points=[[0,0],[0.25,0],[0.5,0],[0.75,0],[1,0],[1,0.25],[1,0.5],[1,0.75],[1,1],[0.75,1],[0.5,1],[0.25,1],[0,1],[0,0.75],[0,0.5],[0,0.25]];outlineConnect=0;gradientColor=none;html=1;whiteSpace=wrap;fontSize=12;fontStyle=0;container=1;pointerEvents=0;collapsible=0;recursiveResize=0;shape=mxgraph.aws4.group;grIcon=mxgraph.aws4.group_security_group;grStroke=0;strokeColor=#00A4A6;fillColor=#E6F6F7;verticalAlign=top;align=left;spacingLeft=30;fontColor=#147EBA;dashed=0;" vertex="1" parent="2w0wu_NG72aW-iGhCFo9-4">
          <mxGeometry x="420" y="380" width="130" height="130" as="geometry" />
        </mxCell>
        <mxCell id="2w0wu_NG72aW-iGhCFo9-31" value="Master DB" style="sketch=0;outlineConnect=0;fontColor=#232F3E;gradientColor=none;fillColor=#C925D1;strokeColor=none;dashed=0;verticalLabelPosition=bottom;verticalAlign=top;align=center;html=1;fontSize=12;fontStyle=0;aspect=fixed;pointerEvents=1;shape=mxgraph.aws4.rds_instance;" vertex="1" parent="2w0wu_NG72aW-iGhCFo9-20">
          <mxGeometry x="40" y="56" width="44" height="44" as="geometry" />
        </mxCell>
        <mxCell id="2w0wu_NG72aW-iGhCFo9-24" value="" style="outlineConnect=0;gradientColor=none;html=1;whiteSpace=wrap;fontSize=12;fontStyle=0;strokeColor=#FF9900;fillColor=none;verticalAlign=top;align=center;fontColor=#FF9900;dashed=1;spacingTop=3;dashPattern=8 8;" vertex="1" parent="2w0wu_NG72aW-iGhCFo9-4">
          <mxGeometry x="90" y="160" width="90" height="250" as="geometry" />
        </mxCell>
        <mxCell id="2w0wu_NG72aW-iGhCFo9-25" value="Application &lt;br&gt;Load Balancer" style="sketch=0;outlineConnect=0;fontColor=#232F3E;gradientColor=none;fillColor=#8C4FFF;strokeColor=none;dashed=0;verticalLabelPosition=bottom;verticalAlign=top;align=center;html=1;fontSize=12;fontStyle=0;aspect=fixed;pointerEvents=1;shape=mxgraph.aws4.application_load_balancer;" vertex="1" parent="2w0wu_NG72aW-iGhCFo9-4">
          <mxGeometry x="116" y="258" width="38" height="38" as="geometry" />
        </mxCell>
        <mxCell id="2w0wu_NG72aW-iGhCFo9-27" value="&lt;font style=&quot;font-size: 10px;&quot;&gt;Webserver&lt;/font&gt;" style="sketch=0;outlineConnect=0;fontColor=#232F3E;gradientColor=none;fillColor=#ED7100;strokeColor=none;dashed=0;verticalLabelPosition=bottom;verticalAlign=top;align=center;html=1;fontSize=12;fontStyle=0;aspect=fixed;pointerEvents=1;shape=mxgraph.aws4.instance2;" vertex="1" parent="2w0wu_NG72aW-iGhCFo9-4">
          <mxGeometry x="306" y="130" width="48" height="48" as="geometry" />
        </mxCell>
        <mxCell id="2w0wu_NG72aW-iGhCFo9-29" value="&lt;font style=&quot;font-size: 10px;&quot;&gt;Auto Scaling&lt;/font&gt;" style="sketch=0;outlineConnect=0;fontColor=#232F3E;gradientColor=none;fillColor=#ED7100;strokeColor=none;dashed=0;verticalLabelPosition=bottom;verticalAlign=top;align=center;html=1;fontSize=12;fontStyle=0;aspect=fixed;pointerEvents=1;shape=mxgraph.aws4.auto_scaling2;" vertex="1" parent="2w0wu_NG72aW-iGhCFo9-4">
          <mxGeometry x="306" y="253" width="48" height="48" as="geometry" />
        </mxCell>
        <mxCell id="2w0wu_NG72aW-iGhCFo9-32" value="Internet &lt;br&gt;Gateway" style="sketch=0;outlineConnect=0;fontColor=#232F3E;gradientColor=none;fillColor=#8C4FFF;strokeColor=none;dashed=0;verticalLabelPosition=bottom;verticalAlign=top;align=center;html=1;fontSize=12;fontStyle=0;aspect=fixed;pointerEvents=1;shape=mxgraph.aws4.internet_gateway;" vertex="1" parent="2w0wu_NG72aW-iGhCFo9-4">
          <mxGeometry x="-25" y="260" width="50" height="50" as="geometry" />
        </mxCell>
        <mxCell id="2w0wu_NG72aW-iGhCFo9-36" value="" style="sketch=0;outlineConnect=0;fontColor=#232F3E;gradientColor=none;strokeColor=#232F3E;fillColor=#ffffff;dashed=0;verticalLabelPosition=bottom;verticalAlign=top;align=center;html=1;fontSize=12;fontStyle=0;aspect=fixed;shape=mxgraph.aws4.resourceIcon;resIcon=mxgraph.aws4.users;" vertex="1" parent="1">
          <mxGeometry x="10" y="200" width="40" height="40" as="geometry" />
        </mxCell>
        <mxCell id="2w0wu_NG72aW-iGhCFo9-37" value="Amazon &lt;br&gt;Route 53" style="sketch=0;points=[[0,0,0],[0.25,0,0],[0.5,0,0],[0.75,0,0],[1,0,0],[0,1,0],[0.25,1,0],[0.5,1,0],[0.75,1,0],[1,1,0],[0,0.25,0],[0,0.5,0],[0,0.75,0],[1,0.25,0],[1,0.5,0],[1,0.75,0]];outlineConnect=0;fontColor=#232F3E;fillColor=#8C4FFF;strokeColor=#ffffff;dashed=0;verticalLabelPosition=bottom;verticalAlign=top;align=center;html=1;fontSize=12;fontStyle=0;aspect=fixed;shape=mxgraph.aws4.resourceIcon;resIcon=mxgraph.aws4.route_53;" vertex="1" parent="1">
          <mxGeometry x="6" y="310" width="48" height="48" as="geometry" />
        </mxCell>
        <mxCell id="2w0wu_NG72aW-iGhCFo9-38" value="MySQL &lt;br&gt;Workbench" style="shape=image;html=1;verticalAlign=top;verticalLabelPosition=bottom;labelBackgroundColor=#ffffff;imageAspect=0;aspect=fixed;image=https://cdn3.iconfinder.com/data/icons/drifting/Me.png" vertex="1" parent="1">
          <mxGeometry x="8" y="450" width="40" height="40" as="geometry" />
        </mxCell>
        <mxCell id="2w0wu_NG72aW-iGhCFo9-46" value="" style="edgeStyle=orthogonalEdgeStyle;html=1;endArrow=block;elbow=vertical;startArrow=block;startFill=1;endFill=1;strokeColor=#545B64;rounded=0;" edge="1" parent="1">
          <mxGeometry width="100" relative="1" as="geometry">
            <mxPoint x="29.5" y="301" as="sourcePoint" />
            <mxPoint x="29.5" y="241" as="targetPoint" />
            <Array as="points">
              <mxPoint x="29.5" y="281" />
              <mxPoint x="29.5" y="281" />
            </Array>
          </mxGeometry>
        </mxCell>
      </root>
    </mxGraphModel>
  </diagram>
</mxfile>
